<svg width="32" height="32" viewBox="0 0 32 32" fill="none" xmlns="http://www.w3.org/2000/svg">
  <!-- 背景圆形 -->
  <circle cx="16" cy="16" r="15" fill="#7c3aed" stroke="#5b21b6" stroke-width="1"/>
  
  <!-- 麦克风图标 -->
  <rect x="13.75" y="10" width="4.5" height="7.5" rx="2.25" fill="white"/>
  <rect x="15" y="17.5" width="2" height="3.75" rx="1" fill="white"/>
  
  <!-- 声波线 -->
  <path d="M 20 12.5 Q 21.25 11.25, 22.5 12.5 Q 23.75 13.75, 25 12.5 Q 26.25 11.25, 27.5 12.5" stroke="white" stroke-width="0.5" fill="none" stroke-linecap="round"/>
  <path d="M 20 15 Q 21.25 13.75, 22.5 15 Q 23.75 16.25, 25 15 Q 26.25 13.75, 27.5 15" stroke="white" stroke-width="0.5" fill="none" stroke-linecap="round"/>
  <path d="M 20 17.5 Q 21.25 16.25, 22.5 17.5 Q 23.75 18.75, 25 17.5 Q 26.25 16.25, 27.5 17.5" stroke="white" stroke-width="0.5" fill="none" stroke-linecap="round"/>
  
  <!-- 语音检测指示点 -->
  <circle cx="11.25" cy="12.5" r="0.5" fill="#ef4444"/>
  <circle cx="11.25" cy="15" r="0.5" fill="#ef4444"/>
  <circle cx="11.25" cy="17.5" r="0.5" fill="#ef4444"/>
  <circle cx="11.25" cy="20" r="0.5" fill="#10b981"/>
</svg> 