<svg width="512" height="512" viewBox="0 0 512 512" fill="none" xmlns="http://www.w3.org/2000/svg">
  <!-- 背景圆形 -->
  <circle cx="256" cy="256" r="240" fill="#7c3aed" stroke="#5b21b6" stroke-width="8"/>
  
  <!-- 麦克风图标 -->
  <rect x="220" y="160" width="72" height="120" rx="36" fill="white"/>
  <rect x="240" y="280" width="32" height="60" rx="16" fill="white"/>
  
  <!-- 声波线 -->
  <path d="M 320 200 Q 340 180, 360 200 Q 380 220, 400 200 Q 420 180, 440 200" stroke="white" stroke-width="8" fill="none" stroke-linecap="round"/>
  <path d="M 320 240 Q 340 220, 360 240 Q 380 260, 400 240 Q 420 220, 440 240" stroke="white" stroke-width="8" fill="none" stroke-linecap="round"/>
  <path d="M 320 280 Q 340 260, 360 280 Q 380 300, 400 280 Q 420 260, 440 280" stroke="white" stroke-width="8" fill="none" stroke-linecap="round"/>
  
  <!-- 语音检测指示点 -->
  <circle cx="180" cy="200" r="8" fill="#ef4444"/>
  <circle cx="180" cy="240" r="8" fill="#ef4444"/>
  <circle cx="180" cy="280" r="8" fill="#ef4444"/>
  <circle cx="180" cy="320" r="8" fill="#10b981"/>
</svg> 